<?xml version="1.0" encoding="utf-8"?>
<svg xmlns="http://www.w3.org/2000/svg" width="2707" height="601" viewBox="0 0 2707 601">
  <!-- White background of the FRAMEWORK area (fills the hole in the dark frame) -->
  <rect x="600" y="25" width="2080" height="551" fill="rgb(255, 255, 255)"/>

  <!-- Unified dark frame: a single shape combining the logo square and the borders, with a rectangular hole for the FRAMEWORK area -->
  <path d="M 0,0 H 2707 V 601 H 0 Z M 600,25 V 576 H 2680 V 25 Z" fill="rgb(35, 41, 50)" fill-rule="evenodd"/>

  <!-- B3D logo (white + orange paths) -->
  <g transform="matrix(1, -0.001411, 0, 1, -11.930904, 8.676518)">
    <path d="M 404.191 364.708 L 404.441 245.578 L 451.941 219.638 C 482.001 203.218 501.221 193.298 504.271 192.638 C 515.871 190.118 524.581 195.388 528.481 207.298 C 530.371 213.058 530.441 216.548 530.441 299.788 C 530.441 303.718 530.441 307.488 530.441 311.098 C 530.451 379.438 530.451 390.458 526.681 399.978 C 525.761 402.308 524.611 404.548 523.181 407.528 C 517.381 419.588 510.601 425.978 493.831 435.218 C 479.671 443.018 412.061 479.638 406.691 482.418 L 403.931 483.848 L 404.191 364.708 Z M 462.631 408.638 C 484.721 397.088 487.721 394.478 490.961 383.978 C 492.831 377.918 492.941 374.518 492.941 320.148 C 492.941 257.908 492.931 257.798 487.501 254.238 C 483.451 251.588 479.941 252.748 459.631 263.448 L 440.941 273.288 L 440.941 346.038 C 440.941 399.758 441.241 418.788 442.081 418.788 C 442.701 418.788 451.951 414.218 462.631 408.638 Z" fill="rgb(255, 255, 255)"/>
    <path d="M 275.191 512.098 L 246.941 495.578 L 246.941 446.618 L 251.191 449.018 C 253.531 450.338 266.671 458.058 280.401 466.168 L 305.351 480.908 L 326.901 470.458 C 342.191 463.048 348.801 459.338 349.681 457.658 C 350.971 455.178 351.531 423.478 350.331 420.368 C 349.191 417.388 344.881 418.808 325.041 428.738 L 305.171 438.678 L 304.551 435.608 C 304.221 433.918 303.941 423.248 303.941 411.888 L 303.941 391.248 L 322.081 382.268 C 332.061 377.328 341.941 372.058 344.031 370.568 C 349.451 366.698 350.941 361.008 350.931 344.358 C 350.911 330.758 350.411 326.788 348.691 326.788 C 348.131 326.788 338.051 332.018 326.301 338.398 L 304.931 350.008 L 275.681 333.768 C 259.601 324.838 245.881 317.078 245.191 316.538 C 243.571 315.248 243.361 268.788 244.981 268.788 C 246.461 268.788 251.511 271.448 276.491 285.358 C 288.621 292.108 300.101 298.378 302.001 299.278 L 305.461 300.928 L 316.951 294.508 C 362.411 269.078 365.821 267.588 373.581 269.688 C 379.151 271.188 384.221 276.948 386.581 284.428 C 389.301 293.038 389.321 339.518 386.621 351.038 C 384.191 361.418 379.211 371.038 372.391 378.578 L 366.771 384.788 L 370.391 384.788 C 378.661 384.788 385.741 390.868 388.491 400.318 C 389.851 404.988 390.041 410.378 389.711 435.068 C 389.351 461.518 389.121 464.808 387.261 469.808 C 383.641 479.538 380.131 485.468 374.221 491.868 C 368.641 497.898 367.361 498.648 337.311 513.448 C 320.181 521.888 305.561 528.748 304.811 528.698 C 304.051 528.648 290.731 521.178 275.191 512.098 Z" fill="rgb(255, 255, 255)"/>
    <path d="M 204.441 481.448 C 200.321 480.088 168.041 463.498 115.191 435.578 L 84.941 419.598 L 84.941 304.618 C 84.941 213.128 85.201 189.708 86.191 189.968 C 86.881 190.138 107.241 200.348 131.441 212.648 C 206.921 251.008 206.761 250.908 215.981 264.048 C 225.801 278.018 227.941 287.828 227.941 318.808 C 227.941 343.378 227.141 349.848 223.301 356.528 C 220.301 361.758 216.571 363.788 210.001 363.788 L 204.951 363.788 L 210.901 369.828 C 218.271 377.308 222.971 384.938 226.581 395.298 C 229.321 403.138 229.381 403.788 229.761 430.288 C 230.171 459.408 229.411 467.558 225.641 474.218 C 224.431 476.348 222.241 478.988 220.761 480.088 C 217.421 482.558 209.771 483.198 204.441 481.448 Z M 188.491 421.318 C 190.191 417.238 190.521 393.418 188.951 387.758 C 188.411 385.828 186.731 382.288 185.211 379.918 C 182.651 375.918 180.271 374.458 153.941 360.728 C 138.271 352.548 125.101 345.848 124.691 345.828 C 124.281 345.808 123.941 357.008 123.941 370.708 L 123.941 395.638 L 152.191 410.178 C 183.731 426.408 186.061 427.128 188.491 421.318 Z M 186.381 327.568 C 187.621 325.798 187.941 322.358 187.931 310.818 C 187.921 297.668 187.701 295.818 185.571 291.288 C 184.281 288.538 182.371 285.548 181.331 284.658 C 178.581 282.268 126.241 254.788 124.461 254.788 C 124.171 254.788 123.941 265.358 123.941 278.288 L 123.941 301.778 L 151.691 315.728 C 166.951 323.398 180.651 329.708 182.131 329.738 C 183.831 329.768 185.411 328.958 186.381 327.568 Z M 297.441 280.108 C 293.231 277.928 251.881 255.368 193.941 223.638 C 140.551 194.398 109.941 177.308 109.941 176.758 C 109.941 176.398 114.101 173.818 119.191 171.028 C 124.281 168.238 143.741 157.518 162.441 147.198 C 181.141 136.888 202.741 124.998 210.441 120.758 C 218.141 116.528 233.211 108.218 243.941 102.288 C 288.591 77.628 303.221 69.788 304.601 69.788 C 305.411 69.788 313.801 74.008 323.251 79.168 C 348.541 92.978 452.211 148.678 487.741 167.548 C 493.411 170.558 497.901 173.168 497.721 173.348 C 497.541 173.528 486.601 179.698 473.421 187.068 C 460.231 194.438 443.591 203.748 436.441 207.758 C 409.381 222.938 404.061 225.788 402.771 225.768 C 400.931 225.748 367.611 208.308 367.231 207.168 C 367.061 206.658 377.501 200.208 390.431 192.838 C 403.361 185.458 413.941 179.158 413.941 178.828 C 413.941 178.508 408.651 175.358 402.191 171.848 C 386.521 163.328 343.571 139.808 322.391 128.168 C 313.011 123.008 305.011 118.788 304.601 118.788 C 304.201 118.788 294.321 124.028 282.651 130.428 C 270.991 136.828 249.061 148.798 233.941 157.028 C 193.391 179.088 193.681 178.928 194.591 179.828 C 195.061 180.298 206.241 186.598 219.441 193.838 C 232.641 201.088 255.141 213.448 269.441 221.308 C 283.741 229.158 305.271 240.988 317.291 247.588 C 329.311 254.188 339.581 260.028 340.121 260.568 C 340.771 261.218 338.421 263.018 333.271 265.818 C 328.971 268.158 320.411 272.938 314.261 276.438 C 308.111 279.928 302.941 282.768 302.761 282.738 C 302.581 282.718 300.191 281.528 297.441 280.108 Z" fill="rgb(250, 103, 8)"/>
  </g>

  <!-- FRAMEWORK text (Anton, outlined to vector paths so no font is needed at render time) -->
  <path d="M683.23 470.32V126.57H820.73V193.56H752.38V248.25H817.22V314.46H752.38V470.32ZM842.8 470.32V126.57H948.27Q974.64 126.57 988.12 138.58Q1001.59 150.59 1006.18 172.18Q1010.77 193.76 1010.77 222.86Q1010.77 250.98 1003.64 267.78Q996.52 284.58 976.79 291.02Q993 294.34 999.54 307.14Q1006.09 319.93 1006.09 340.24V470.32H938.31V335.75Q938.31 320.71 932.16 317.1Q926.01 313.48 912.34 313.48V470.32ZM912.73 253.91H929.33Q943.59 253.91 943.59 222.86Q943.59 202.74 940.46 196.49Q937.34 190.24 928.74 190.24H912.73ZM1024.05 470.32 1057.26 126.57H1173.86L1206.48 470.32H1141.44L1136.55 414.85H1095.15L1090.85 470.32ZM1100.03 359.97H1131.28L1116.24 185.16H1113.12ZM1227.57 470.32V126.57H1332.26L1361.16 336.14L1389.88 126.57H1495.54V470.32H1432.65V222.66L1393.2 470.32H1331.48L1289.68 222.66V470.32ZM1526.01 470.32V126.57H1663.51V192.98H1595.93V259.97H1660.77V324.62H1595.93V403.33H1668V470.32ZM1717.61 470.32 1680.7 126.57H1747.88L1766.83 343.56L1786.16 126.57H1850.23L1868.59 343.56L1886.95 126.57H1954.91L1917.41 470.32H1834.99L1817.8 304.89L1801.4 470.32ZM2057.45 473.44Q2016.24 473.44 1994.46 448.54Q1972.69 423.64 1972.69 376.57V213.29Q1972.69 169.15 1994.27 146.3Q2015.85 123.44 2057.45 123.44Q2099.05 123.44 2120.64 146.3Q2142.22 169.15 2142.22 213.29V376.57Q2142.22 423.64 2120.44 448.54Q2098.66 473.44 2057.45 473.44ZM2058.04 410.16Q2073.66 410.16 2073.66 379.89V212.12Q2073.66 186.73 2058.43 186.73Q2041.24 186.73 2041.24 212.7V380.28Q2041.24 396.3 2045.15 403.23Q2049.05 410.16 2058.04 410.16ZM2169.95 470.32V126.57H2275.42Q2301.79 126.57 2315.27 138.58Q2328.74 150.59 2333.33 172.18Q2337.92 193.76 2337.92 222.86Q2337.92 250.98 2330.79 267.78Q2323.66 284.58 2303.94 291.02Q2320.15 294.34 2326.69 307.14Q2333.23 319.93 2333.23 340.24V470.32H2265.46V335.75Q2265.46 320.71 2259.31 317.1Q2253.16 313.48 2239.48 313.48V470.32ZM2239.88 253.91H2256.48Q2270.73 253.91 2270.73 222.86Q2270.73 202.74 2267.61 196.49Q2264.48 190.24 2255.89 190.24H2239.88ZM2360.58 470.32V126.57H2428.55V264.27L2460.58 126.57H2529.72L2491.24 283.99L2537.73 470.32H2466.44L2428.94 303.91V470.32Z" fill="rgb(35, 41, 50)"/>
</svg>
